{"title":"Knight.And.Day.2010.CAM.XviD-FEEL-FREE","uid":5648728,"size":1045690886,"categoryP":"video","categoryS":"movies","magnet":"?xt=urn:btih:dca432fe94e4042a2adf19e376a8638e1d7d3917&amp;dn=Knight.And.Day.2010.CAM.XviD-FEEL-FREE&amp;tr=udp%3A%2F%2Ftracker.openbittorrent.com%3A80&amp;tr=udp%3A%2F%2Fopen.demonii.com%3A1337&amp;tr=udp%3A%2F%2Ftracker.coppersurfer.tk%3A6969&amp;tr=udp%3A%2F%2Fexodus.desync.com%3A6969","seeders":1,"leechers":0,"uploader":"raymondhome","files":-1,"time":1277562839,"description":"Love for All and Sharing is the first step to solving all the problems of humanity.\n\nWebsites I want to share.\n\n    &lt;a href=&quot;\nhttp://www.shareintl.org/&quot; rel=&quot;nofollow&quot; target=&quot;_NEW&quot;&gt;\nhttp://www.shareintl.org/&lt;/a&gt;\n\n    &lt;a href=&quot;\nhttp://www.lightmiddleway.com&quot; rel=&quot;nofollow&quot; target=&quot;_NEW&quot;&gt;\nhttp://www.lightmiddleway.com&lt;/a&gt;\n\n\nThank you very much\n\nNo credit for me...credit to EVERYONE for sharing\n &lt;a href=&quot;\nhttp://thepiratebay.se/user/raymondhome/&quot; rel=&quot;nofollow&quot; target=&quot;_NEW&quot;&gt;\nhttp://thepiratebay.se/user/raymondhome/&lt;/a&gt;\n\nPLOT\nJune Havens (Cameron Diaz) finds her everyday life tangled with that of a secret agent (Tom Cruise) who has realized...\n\nLanguage:English\nSource Video:Relizlab.Thanks\nSource Audio:PrisM.Thanks\nEncoder: Tony2\n............................................\nGeneral\nDuration : 1h 44mn\nOverall bit rate : 1 337 Kbps\n.............................................\nVideo\nFormat : xvid\nCodec ID : xvid\nDuration : 1h 44mn\nBit rate : 1 200 Kbps\nWidth : 704 pixels\nHeight : 304 pixels\nDisplay aspect ratio : 2.35:1\nFrame rate : 25.000 fps\nResolution : 24 bits\nBits/(Pixel*Frame) : 0.224\nStream size : 893 MiB (90%)\n.............................................\nAudio\nID : 1\nFormat : MPEG Audio\nFormat version : Version 1\nFormat profile : Layer 3\nCodec ID : 55\nCodec ID/Hint : MP3\nDuration : 1h 44mn\nBit rate mode : Constant\nBit rate : 128 Kbps\nChannel(s) : 2 channels\nSampling rate : 44.1 KHz\nResolution : 16 bits\nStream size : 95.3 MiB (10%)\nAlignment : Split accross interleaves\nInterleave, duration : 40 ms (1.00 video frame)\nInterleave, preload duration : 500 ms\n\ncredit FEEL-FREE &amp; pitic BIG BIG BIG TIME &amp; to all the people who made it possible for us to share this...especially EVERYONE involve in the production of the movie...IF YOU LIKE IT...BUY IT :)\n\n*****help what we can with others in need...the world is ONE big family*****","torrent":{"xt":"urn:btih:dca432fe94e4042a2adf19e376a8638e1d7d3917","amp;dn":"Knight.And.Day.2010.CAM.XviD-FEEL-FREE","amp;tr":["udp%3A%2F%2Ftracker.openbittorrent.com%3A80","udp%3A%2F%2Fopen.demonii.com%3A1337","udp%3A%2F%2Ftracker.coppersurfer.tk%3A6969","udp%3A%2F%2Fexodus.desync.com%3A6969"],"infoHash":"dca432fe94e4042a2adf19e376a8638e1d7d3917","infoHashBuffer":{"type":"Buffer","data":[220,164,50,254,148,228,4,42,42,223,25,227,118,168,99,142,29,125,57,23]},"announce":[],"urlList":[]}}